PathFileType	4	(X/Y/Z)	Patient4_TMGait_0pt4_01_left_14.trc.trc
DataRate	CameraRate	NumFrames	NumMarkers	Units	OrigDataRate	OrigDataStartFrame	OrigNumFrames
78.651685393258	78.651685393258	5	33	mm	78.651685393258	106	       141
Frame#	Time	Sacral			L.Shoulder			Chest			R.Shoulder			Neck			R.ASIS			L.ASIS			R.Thigh.Superior			R.Thigh.Lateral			R.Thigh.Inferior			R.Patella			L.Thigh.Superior			L.Thigh.Lateral			L.Thigh.Inferior			L.Patella			L.Shank.Superior			L.Shank.Lateral			L.Shank.Inferior			R.Shank.Superior			R.Shank.Lateral			R.Shank.Inferior			R.Heel			R.Midfoot.Superior			R.Midfoot.Lateral			R.Toe			L.Heel			L.Midfoot.Lateral			L.Midfoot.Superior			L.Toe			L.Elbow			L.Wrist			R.Elbow			R.Wrist			
		X1	Y1	Z1	X2	Y2	Z2	X3	Y3	Z3	X4	Y4	Z4	X5	Y5	Z5	X6	Y6	Z6	X7	Y7	Z7	X8	Y8	Z8	X9	Y9	Z9	X10	Y10	Z10	X11	Y11	Z11	X12	Y12	Z12	X13	Y13	Z13	X14	Y14	Z14	X15	Y15	Z15	X16	Y16	Z16	X17	Y17	Z17	X18	Y18	Z18	X19	Y19	Z19	X20	Y20	Z20	X21	Y21	Z21	X22	Y22	Z22	X23	Y23	Z23	X24	Y24	Z24	X25	Y25	Z25	X26	Y26	Z26	X27	Y27	Z27	X28	Y28	Z28	X29	Y29	Z29	X30	Y30	Z30	X31	Y31	Z31	X32	Y32	Z32	X33	Y33	Z33	

106	18.715000000000	826.006103564925	1018.154932876997	539.884762409441	995.904057387178	1432.175590449861	322.533152822175	1125.631290740666	1361.753201430870	461.501229420074	1083.687961852323	1444.417631559697	646.865866066207	1013.777032177301	1496.740657680309	487.733023202075	1066.913842768437	938.797017572641	615.504730384379	1007.649582091159	967.609847417328	349.201561479938	1093.305631657399	737.204125915962	583.493984988580	1014.731609896363	632.511919039610	652.358787278228	1079.088314586024	578.151609738953	563.041604026960	1075.434915206137	491.951155833015	568.862662512590	1094.668953801738	789.273505716692	371.486155453752	1047.943826909654	662.509344620809	295.517132382380	1157.399493333031	603.219051227736	348.611067172098	1174.802585903479	517.365730632597	339.177751108677	1118.681161137574	446.151428812989	333.696059491731	984.989129108200	380.049957522132	291.671885574474	1000.813308124967	249.224365507146	342.995018803107	1046.613429921554	404.200560773176	579.296231777289	978.616169567300	301.828440117415	646.415317692178	1011.615608695487	206.348490987439	578.913641368380	871.763933878600	43.378990739959	557.671717745764	1045.114332822407	96.843603179947	584.049729894188	958.932890604766	37.182257800953	627.912673151017	1166.653504945706	41.910300593959	605.159071546664	830.170880497342	148.020671836429	390.102770422058	889.801016215088	116.943421867805	304.791029749822	992.140038899891	144.698651010670	320.336167223889	1087.854641611190	50.949122532399	283.417647351892	907.814926812627	1084.368242006673	226.478163068189	937.804192048015	827.409972221768	192.968978895300	1155.244280240289	1117.137740108885	790.466146815071	1389.066543065271	1027.837537966032	735.364275273722	
107	18.727714285714	824.760226094868	1019.113205440984	540.969191627903	994.999814232478	1432.270616735533	322.541593534663	1125.396727653324	1361.368220276483	460.668912906061	1085.037082257206	1444.565082791488	646.176566581993	1013.950344284177	1496.844422419247	487.533409061143	1065.728726427348	938.681232978978	615.282239437812	1005.246651969641	968.045923776687	349.181706958540	1090.015650168647	736.696539731302	582.992121233542	1011.277708579523	632.658264090594	652.700038265129	1074.479756121418	577.743723827360	563.032107554591	1070.340159344897	491.852026099961	569.124443830853	1092.482909101133	790.780720037851	371.364596145482	1046.588559710561	663.829878560048	295.081955400061	1156.228810718081	605.214804945341	348.550337041785	1175.004249192553	520.405747501954	338.707471865878	1121.519927925614	448.419334127374	332.699505205843	991.097291666459	376.634426354583	290.068011883475	1012.965293764519	246.192816384963	340.635109669748	1041.590660726405	404.199159978402	579.634283855314	973.618149892402	301.830286272809	646.833219405870	1006.488991290342	206.354992621036	579.209274005112	866.656271093085	43.386929079509	557.788876302664	1039.986564853738	96.804015693321	584.208862063929	953.809586067114	37.141966688043	628.040406113160	1161.523132663112	41.835717711072	605.243568113571	847.403955462232	136.136617954457	387.158431533005	908.468367994123	109.066324254186	301.463187046653	1009.259015008557	141.742460049839	317.247996396555	1109.667372258455	53.625431759794	279.289577024276	901.961255700612	1085.421535125872	228.081612865633	928.061447625567	828.112977026782	194.454414208529	1160.530647290666	1117.980120842760	788.196943687957	1396.797583147004	1039.612533550263	729.113654552768	
108	18.740428571429	823.520317232033	1020.016886137178	541.868561550418	994.069770993368	1432.353315075108	322.430253511282	1125.132883590185	1360.938817701627	459.697709373996	1086.349634006488	1444.616968890961	645.353410029584	1014.091730787926	1496.899754585122	487.233030287632	1064.540752607059	938.556232407282	614.860283616957	1002.867477318524	968.389143329896	348.956702379016	1086.700892986255	736.174866419770	582.376909161724	1007.793078260168	632.811120266520	652.981754846152	1069.818825765094	577.324089594689	562.972363724680	1065.201997016410	491.768127219504	569.370666926780	1090.050857874346	791.977767052575	371.195093453340	1044.956881265987	664.877756557221	294.523610399867	1154.576379841082	606.799978707845	348.534158097068	1174.703577508851	523.132407139207	338.302320756565	1123.938055956750	450.475032080434	331.792087234412	997.243666183036	372.998387605716	288.179033647970	1025.045834247856	243.251154717084	338.234506953147	1036.525361475303	404.201093056646	579.941464498460	968.593674745842	301.835452802008	647.216715382780	1001.341622640151	206.364371187844	579.496379654631	861.534479182084	43.406498087407	557.907782987823	1034.859387247783	96.765253494085	584.369145420861	948.687238217484	37.102209812710	628.166105331277	1156.395279186036	41.755259416062	605.324123480581	864.866404554369	124.605726185035	383.677208053244	927.474189276489	101.418785083145	297.934340604318	1026.438185058452	138.974145541731	314.270555819308	1131.394820551904	56.553472372635	275.914699045540	896.410831722226	1086.442270918856	229.584913544490	919.049640760489	828.856134034837	195.862248036524	1165.550480389017	1118.711844350083	785.742236132788	1403.557181046895	1050.844745507655	722.729746820921	
109	18.753142857143	822.292027994711	1020.835530457197	542.558518932931	993.112125931248	1432.416489730335	322.189492935741	1124.821545447532	1360.471458361265	458.599447991864	1087.569128115011	1444.572234605335	644.404305454873	1014.176896307319	1496.903523458139	486.827685159005	1063.358879602496	938.427529719315	614.250796771475	1000.552899687298	968.626137164947	348.530397790891	1083.418879135518	735.642449351872	581.701003180055	1004.289986009064	632.958873708373	653.196781215553	1065.170300093804	576.887026915470	562.886534487398	1060.076719897822	491.689930078114	569.599050540337	1087.425168966543	792.850072062604	370.999614513506	1043.115651297926	665.647412165061	293.841884967305	1152.521357113995	607.973571842630	348.539283014493	1173.963732093278	525.520923595991	337.958258104020	1125.937473055704	452.297215529257	330.988293099583	1003.355580917550	369.274430077421	286.050676758656	1036.830367292621	240.519107423377	335.864045492351	1031.460644438763	404.199281426155	580.210053292019	963.567268368940	301.845602202130	647.556710198317	996.193163556343	206.374122462320	579.764660902496	856.399715544672	43.435979694841	558.025756236907	1029.734448195822	96.729127470701	584.527353602330	943.565605921987	37.065650021190	628.286765919147	1151.270090132838	41.671542410029	605.401704633162	882.211001275823	113.747224166771	379.778293501894	946.446435652312	94.249015790492	294.311397240380	1043.345346833789	136.526044190906	311.483157880993	1152.596705242696	59.731085234962	273.360251348795	891.202090391261	1087.405264370374	230.946642348653	910.789208278979	829.597384636539	197.152604842005	1170.306438449280	1119.338076130024	783.118339992725	1409.398356343694	1061.411663116650	716.233191456456	
110	18.765857142857	821.083840699676	1021.543253168990	543.014005829662	992.125086595731	1432.456217594161	321.810248743260	1124.445529987193	1359.978901544507	457.387837889024	1088.638591864420	1444.438793700968	643.338398801493	1014.179597395308	1496.857021349059	486.312501380456	1062.194297940479	938.302119574504	613.470619368256	998.347336228620	968.747264573901	347.909997210147	1080.217031293440	735.101939971777	581.012856723880	1000.774748220193	633.092371474677	653.337659806909	1060.587243473616	576.428041951369	562.794866048354	1055.009243842068	491.608418501635	569.806271036401	1084.674260935484	793.385918786228	370.777817734390	1041.113405644658	666.128922168700	293.043378101506	1150.144146310076	608.733267366677	348.520423284961	1172.835114746020	527.543160934446	337.658279750941	1127.510789915384	453.855553116643	330.285576260469	1009.317518080872	365.562929250862	283.752887402104	1048.090214538633	238.060621554942	333.588592347874	1026.430188636172	404.188617013376	580.433711480176	958.556115097518	301.862436390226	647.845357464665	991.060108843859	206.382589970505	580.005477795048	851.255428871925	43.472260085815	558.140002167486	1024.612419085502	96.696964850415	584.679744210669	938.444518708221	37.034628242994	628.399709086242	1146.146763756213	41.587905380592	605.477003339086	899.082348163776	103.779496106794	375.628998496320	964.989527330944	87.714428246541	290.718722844502	1059.648138034930	134.457512118658	308.946786179090	1172.854289992610	63.096316442140	271.617536268175	886.368973937780	1088.289504715363	232.122870119413	903.295018769605	830.302123866859	198.283183175813	1174.789037124452	1119.871518187625	780.338692268611	1414.377570308701	1071.210753225831	709.642842916213	
